<svg width="84" height="86" viewBox="0 0 84 86" fill="none" xmlns="http://www.w3.org/2000/svg">
<path d="M40.1485 85.289H39.8204L39.5704 85.2187L33.1484 80.9492L32.9492 80.6484L32.3594 77.1484L32.5078 76.7265L38.3476 71.7851L37.9258 66.4765L35.875 64.5781L35.7265 64.2266L35.7578 63.2656L34.1797 61.5039L32.7305 61.3555L32.4414 61.2071L31.4727 60.1368L31.3516 59.836L31.2422 49.316L28.043 47.4762L27.8125 47.1246L27.4531 42.8941L19.6914 38.5347L19.5118 38.3433L16.9102 33.2417L8.67185 35.5308L8.22263 35.4097L7.04293 34.1988L6.91402 33.8473L7.01558 32.4879L5.38668 33.1285L4.87496 32.9996L0.914062 28.4488L0.855469 27.9371L4.56637 20.7887L4.8359 20.5582L9.1367 19.277L11.1679 9.47619L10.1679 8.09729L10.4491 7.37854L14.5194 6.64026L14.8476 6.69885L18.6562 9.08945L23.1953 7.19885L22.3554 3.92935L22.5664 3.42935L23.7461 2.71841H24.1953L25.7461 3.55825L31.4375 0.636353L32.0859 0.976192L33.2656 8.40589L46.6366 8.2848L49.4882 5.0739L50.0273 4.96452L50.7382 5.31608L50.957 5.54655L52.9062 9.90595L53.3476 10.0856L53.5195 10.7966L49.5 15.695L55.1289 14.7262L55.6601 15.0856L55.8711 16.2262L55.6914 16.6754L53.543 18.2262L53.5938 18.2965L58.254 16.6871L58.6055 16.7067L63.5664 19.1364L63.8164 19.5856L63.6172 21.8239L74.1292 23.363L74.4104 23.5114L78.4299 28.2106L81.7502 29.2497L82.0588 29.57L83.1291 33.7692L83.1096 34.0505L81.3284 38.4997L81.18 38.6989L77.5081 41.3708L74.7386 44.9411L74.5784 45.07L71.969 46.32L71.719 52.5114L71.6682 52.7106L65.9573 62.9606L62.5354 66.1795L62.2464 66.3084L58.1761 66.5076L54.4652 67.4763L49.5355 70.6169H49.3167L45.4769 80.1872L45.1488 80.4568L43.6683 80.7771L40.5277 85.0974L40.1683 85.2888V85.238L40.1485 85.289Z" fill="#6CDADE"/>
</svg>
